<svg width="28" height="28" viewBox="0 0 28 28" fill="none" xmlns="http://www.w3.org/2000/svg">
<path d="M17.5 17.5L19.25 19.25" stroke="#8E8E93" stroke-width="1.75" stroke-linecap="round" stroke-linejoin="round"/>
<path d="M19.7555 22.196C19.0815 21.5221 19.0815 20.4294 19.7555 19.7555C20.4294 19.0815 21.5221 19.0815 22.196 19.7555L24.5778 22.1372C25.2518 22.8112 25.2518 23.9039 24.5778 24.5778C23.9039 25.2518 22.8112 25.2518 22.1372 24.5778L19.7555 22.196Z" stroke="#8E8E93" stroke-width="1.75" stroke-linecap="round" stroke-linejoin="round"/>
<path d="M19.2501 11.0832C19.2501 6.57285 15.5937 2.9165 11.0834 2.9165C6.57309 2.9165 2.91675 6.57285 2.91675 11.0832C2.91675 15.5935 6.57309 19.2498 11.0834 19.2498C15.5937 19.2498 19.2501 15.5935 19.2501 11.0832Z" stroke="#8E8E93" stroke-width="1.75" stroke-linecap="round" stroke-linejoin="round"/>
</svg>
